<svg width="210" height="26" viewBox="0 0 210 26" fill="none" xmlns="http://www.w3.org/2000/svg">
<path d="M79.8079 17.2216L79.8079 17.2216L79.8094 17.2261C80.3267 18.7073 81.1255 20.0807 82.2032 21.3458C83.2861 22.617 84.6602 23.6725 86.3205 24.5144L86.323 24.5157C87.9994 25.342 89.9958 25.75 92.3037 25.75C93.8397 25.75 95.4192 25.725 96.7029 25.3446L96.9153 25.2817L96.8784 25.0632L96.6664 23.8107L96.6275 23.5806L96.3952 23.6037C95.1187 23.7304 93.7337 23.7307 92.3728 23.7307C91.0251 23.7307 89.7834 23.4727 88.6445 22.9594C87.5018 22.4213 86.5052 21.6823 85.6532 20.741C84.8244 19.7998 84.1607 18.6767 83.6641 17.3682C83.1919 16.0405 82.9543 14.5852 82.9543 13C82.9543 11.4142 83.1921 9.97048 83.6641 8.66629C84.1609 7.33424 84.8248 6.19979 85.6532 5.25905C86.5049 4.31799 87.5009 3.59087 88.6427 3.07596L88.6427 3.07599L88.6464 3.07427C89.785 2.53845 91.026 2.26934 92.3728 2.26934C93.6959 2.26934 94.9377 2.53819 96.1009 3.07505L96.1009 3.07511L96.1061 3.0774C97.2948 3.59323 98.3252 4.32132 99.1993 5.26265L99.1993 5.26266L99.2014 5.26495C100.042 6.14759 101.497 7.82705 101.72 10.3476C102.14 15.0858 100.608 17.3915 98.9169 18.5316C97.2008 19.6884 95.258 19.6908 94.782 19.6908C93.8071 19.6908 92.7492 19.6866 91.9816 19.4638C91.4046 19.2963 90.862 19.0071 90.3532 18.5925C89.856 18.1874 89.4332 17.619 89.0904 16.8761C88.7793 16.2022 88.6065 15.3372 88.5833 14.2712H99.5777H99.8277V14.0212V13.3996C99.8277 12.0548 99.6371 10.8783 99.2484 9.87593C98.8626 8.88097 98.3315 8.05045 97.6517 7.3908C96.9948 6.73431 96.2247 6.24176 95.3436 5.91393C94.466 5.58737 93.5386 5.42468 92.5631 5.42468C91.5276 5.42468 90.5678 5.60738 89.6867 5.97587C88.8052 6.32473 88.0358 6.84813 87.3803 7.5442C86.7232 8.2223 86.213 9.05109 85.8475 10.0257C85.4797 10.9863 85.2985 12.0728 85.2985 13.2812C85.2985 14.2932 85.4503 15.2852 85.7538 16.2563L85.7537 16.2564L85.7558 16.2623C86.0809 17.2175 86.5591 18.0824 87.1898 18.8556L87.1897 18.8557L87.1944 18.8611C87.8502 19.6194 88.6679 20.2315 89.6433 20.6989L89.6433 20.6989L89.6489 20.7015C90.6614 21.1561 92.2988 21.4337 94.1847 21.4337C97.9399 21.4337 100.752 20.369 102.628 18.6212C104.505 16.8725 105.418 14.4637 105.418 11.8285C105.418 4.89905 99.8563 2.22521 98.5301 1.58766C98.4753 1.5613 98.4277 1.53842 98.3881 1.51887C96.55 0.612553 94.634 0.25 92.3037 0.25C89.9958 0.25 87.9994 0.657961 86.323 1.48433C84.662 2.30316 83.2873 3.3473 82.204 4.61877C81.1252 5.86192 80.3262 7.23615 79.809 8.74055L79.809 8.74054L79.8079 8.74388C79.3177 10.2379 79.0703 11.6571 79.0703 13C79.0703 14.3203 79.3179 15.7281 79.8079 17.2216ZM95.6136 8.48133L95.6136 8.48136L95.6166 8.4855C96.3306 9.46729 96.7172 10.8263 96.7504 12.5873H88.5834C88.5983 11.9052 88.6744 11.2474 88.8113 10.6135C88.9837 9.88626 89.2311 9.25082 89.551 8.70438C89.8873 8.16339 90.3044 7.73862 90.802 7.42531L90.8021 7.42538L90.8075 7.42176C91.2936 7.09768 91.8752 6.93099 92.5631 6.93099C93.8862 6.93099 94.8931 7.44663 95.6136 8.48133Z" fill="#28DCB4" stroke="#28DCB4" stroke-width="0.5"/>
<path d="M4.03636 21.8137V18.7046H5.56364C6.01818 18.7046 6.36364 18.6046 6.6 18.4046C6.85455 18.2046 7.07273 17.8864 7.25455 17.4501L7.69091 16.4955L0 2.31369H4.14545L9.35455 12.6773L13.8818 2.31369H17.8364L10.1182 19.2228C9.64545 20.1864 9.10909 20.8591 8.50909 21.241C7.90909 21.6228 7.10909 21.8137 6.10909 21.8137H4.03636Z" fill="white"/>
<path d="M18.4865 25.3864V18.3773H19.5229C20.1592 18.3773 20.6956 18.0319 21.132 17.341C21.5683 16.6501 21.9138 15.5319 22.1683 13.9864C22.4229 12.441 22.5865 10.3955 22.6592 7.85005L22.8229 2.31369H35.7229V18.3773H38.2865V25.3864H34.9865V21.6773H21.7865V25.3864H18.4865ZM24.0229 18.3773H31.9865V5.61369H26.232L26.1774 8.34096C26.0865 11.1773 25.8865 13.3955 25.5774 14.9955C25.2865 16.5955 24.7683 17.7228 24.0229 18.3773Z" fill="white"/>
<path d="M46.5837 2.31369H50.4018L57.52 21.6773H53.6473L51.8473 16.8501H45.0837L43.3109 21.6773H39.4382L46.5837 2.31369ZM51.1655 14.2046L48.4928 6.21369L45.7109 14.2046H51.1655Z" fill="white"/>
<path d="M72.0848 21.6773V5.61369H66.4121L66.303 8.88642C66.2121 11.4501 66.003 13.5682 65.6757 15.241C65.3484 16.9137 64.8757 18.2319 64.2575 19.1955C63.6575 20.141 62.8848 20.8137 61.9393 21.2137C61.0121 21.5955 59.8848 21.7864 58.5575 21.7864V18.541C59.2303 18.541 59.8121 18.3955 60.303 18.1046C60.7939 17.8137 61.203 17.2864 61.5303 16.5228C61.8757 15.7591 62.1484 14.6773 62.3484 13.2773C62.5484 11.8773 62.6848 10.0682 62.7575 7.85005L62.9484 2.31369H75.8212V21.6773H72.0848Z" fill="white"/>
<path d="M125.05 2.31362V21.6773H121.314V13.4136H112.532V21.6773H108.769V2.31362H112.532V10.1409H121.314V2.31362H125.05Z" fill="white"/>
<path d="M129.258 21.6773V2.31362H132.995V10.1136H134.904L140.658 2.31362H144.858L137.822 11.6954L145.404 21.6773H140.849L134.849 13.5227H132.995V21.6773H129.258Z" fill="white"/>
<path d="M153.358 2.31362H157.176L164.294 21.6773H160.421L158.621 16.85H151.858L150.085 21.6773H146.212L153.358 2.31362ZM157.939 14.2045L155.267 6.21362L152.485 14.2045H157.939Z" fill="white"/>
<path d="M166.095 21.6773V17.75H169.095V21.6773H166.095Z" fill="white"/>
<path d="M172.771 21.6773V2.31362H180.98C181.871 2.31362 182.689 2.49543 183.434 2.85907C184.198 3.22271 184.853 3.71362 185.398 4.3318C185.944 4.94998 186.371 5.64089 186.68 6.40453C186.989 7.16816 187.144 7.94998 187.144 8.74998C187.144 9.84089 186.889 10.8773 186.38 11.8591C185.871 12.8409 185.162 13.6409 184.253 14.2591C183.362 14.8773 182.316 15.1863 181.116 15.1863H176.534V21.6773H172.771ZM176.534 11.8863H180.898C181.589 11.8863 182.162 11.6045 182.616 11.0409C183.089 10.4591 183.325 9.69543 183.325 8.74998C183.325 7.74998 183.062 6.97725 182.534 6.4318C182.007 5.88634 181.407 5.61362 180.734 5.61362H176.534V11.8863Z" fill="white"/>
<path d="M197.349 21.6773V19.9318C196.204 19.8773 195.104 19.6409 194.049 19.2227C193.013 18.7863 192.095 18.1954 191.295 17.45C190.495 16.7045 189.858 15.8227 189.386 14.8045C188.931 13.7682 188.704 12.6318 188.704 11.3954C188.722 10.0863 188.968 8.92271 189.44 7.90453C189.913 6.86816 190.558 5.98634 191.377 5.25907C192.195 4.51362 193.113 3.94089 194.131 3.54089C195.168 3.12271 196.24 2.88634 197.349 2.8318V1.35907H200.922V2.8318C202.031 2.88634 203.104 3.12271 204.14 3.54089C205.177 3.95907 206.095 4.54089 206.895 5.28634C207.713 6.01362 208.358 6.89543 208.831 7.9318C209.304 8.94998 209.54 10.1045 209.54 11.3954C209.558 12.65 209.331 13.7954 208.858 14.8318C208.386 15.85 207.74 16.7318 206.922 17.4773C206.104 18.2227 205.177 18.8045 204.14 19.2227C203.104 19.6409 202.031 19.8773 200.922 19.9318V21.6773H197.349ZM197.458 16.9045V5.85907C196.549 5.91362 195.713 6.16816 194.949 6.62271C194.186 7.07725 193.577 7.70453 193.122 8.50453C192.686 9.30453 192.468 10.2682 192.468 11.3954C192.468 12.5409 192.704 13.5136 193.177 14.3136C193.649 15.1136 194.258 15.7318 195.004 16.1682C195.768 16.6045 196.586 16.85 197.458 16.9045ZM200.813 16.9045C201.704 16.85 202.522 16.6045 203.268 16.1682C204.031 15.7136 204.64 15.0863 205.095 14.2863C205.568 13.4863 205.804 12.5227 205.804 11.3954C205.804 10.2682 205.568 9.30453 205.095 8.50453C204.64 7.70453 204.031 7.07725 203.268 6.62271C202.522 6.16816 201.704 5.91362 200.813 5.85907V16.9045Z" fill="white"/>
</svg>
